<svg width="245" height="252" viewBox="0 0 245 252" fill="none" xmlns="http://www.w3.org/2000/svg">
<path d="M59.0625 53.235V74.8125C59.8106 78.75 82.6875 86.625 122.062 86.625C161.438 86.625 184.314 78.75 185.062 74.8125V53.235C160.808 66.2288 83.2781 66.1894 59.0625 53.235ZM106.312 78.75C105.268 78.75 104.267 78.3352 103.528 77.5968C102.79 76.8584 102.375 75.8568 102.375 74.8125C102.375 73.7683 102.79 72.7667 103.528 72.0283C104.267 71.2899 105.268 70.875 106.312 70.875C107.357 70.875 108.358 71.2899 109.097 72.0283C109.835 72.7667 110.25 73.7683 110.25 74.8125C110.25 75.8568 109.835 76.8584 109.097 77.5968C108.358 78.3352 107.357 78.75 106.312 78.75ZM122.062 78.75C121.018 78.75 120.017 78.3352 119.278 77.5968C118.54 76.8584 118.125 75.8568 118.125 74.8125C118.125 73.7683 118.54 72.7667 119.278 72.0283C120.017 71.2899 121.018 70.875 122.062 70.875C123.107 70.875 124.108 71.2899 124.847 72.0283C125.585 72.7667 126 73.7683 126 74.8125C126 75.8568 125.585 76.8584 124.847 77.5968C124.108 78.3352 123.107 78.75 122.062 78.75ZM137.812 78.75C136.768 78.75 135.767 78.3352 135.028 77.5968C134.29 76.8584 133.875 75.8568 133.875 74.8125C133.875 73.7683 134.29 72.7667 135.028 72.0283C135.767 71.2899 136.768 70.875 137.812 70.875C138.857 70.875 139.858 71.2899 140.597 72.0283C141.335 72.7667 141.75 73.7683 141.75 74.8125C141.75 75.8568 141.335 76.8584 140.597 77.5968C139.858 78.3352 138.857 78.75 137.812 78.75ZM59.0625 21.735V43.3125C59.8106 47.25 82.6875 55.125 122.062 55.125C161.438 55.125 184.314 47.25 185.062 43.3125V21.735C160.808 34.7288 83.2781 34.6894 59.0625 21.735ZM106.312 47.25C105.268 47.25 104.267 46.8352 103.528 46.0968C102.79 45.3584 102.375 44.3568 102.375 43.3125C102.375 42.2683 102.79 41.2667 103.528 40.5283C104.267 39.7899 105.268 39.375 106.312 39.375C107.357 39.375 108.358 39.7899 109.097 40.5283C109.835 41.2667 110.25 42.2683 110.25 43.3125C110.25 44.3568 109.835 45.3584 109.097 46.0968C108.358 46.8352 107.357 47.25 106.312 47.25ZM122.062 47.25C121.018 47.25 120.017 46.8352 119.278 46.0968C118.54 45.3584 118.125 44.3568 118.125 43.3125C118.125 42.2683 118.54 41.2667 119.278 40.5283C120.017 39.7899 121.018 39.375 122.062 39.375C123.107 39.375 124.108 39.7899 124.847 40.5283C125.585 41.2667 126 42.2683 126 43.3125C126 44.3568 125.585 45.3584 124.847 46.0968C124.108 46.8352 123.107 47.25 122.062 47.25ZM137.812 47.25C136.768 47.25 135.767 46.8352 135.028 46.0968C134.29 45.3584 133.875 44.3568 133.875 43.3125C133.875 42.2683 134.29 41.2667 135.028 40.5283C135.767 39.7899 136.768 39.375 137.812 39.375C138.857 39.375 139.858 39.7899 140.597 40.5283C141.335 41.2667 141.75 42.2683 141.75 43.3125C141.75 44.3568 141.335 45.3584 140.597 46.0968C139.858 46.8352 138.857 47.25 137.812 47.25ZM59.0625 84.735V106.313C59.0625 115.014 87.255 122.063 122.062 122.063C156.87 122.063 185.062 115.014 185.062 106.313V84.735C160.808 97.7288 83.2781 97.6894 59.0625 84.735ZM106.312 110.25C105.268 110.25 104.267 109.835 103.528 109.097C102.79 108.358 102.375 107.357 102.375 106.313C102.375 105.268 102.79 104.267 103.528 103.528C104.267 102.79 105.268 102.375 106.312 102.375C107.357 102.375 108.358 102.79 109.097 103.528C109.835 104.267 110.25 105.268 110.25 106.313C110.25 107.357 109.835 108.358 109.097 109.097C108.358 109.835 107.357 110.25 106.312 110.25ZM122.062 110.25C121.018 110.25 120.017 109.835 119.278 109.097C118.54 108.358 118.125 107.357 118.125 106.313C118.125 105.268 118.54 104.267 119.278 103.528C120.017 102.79 121.018 102.375 122.062 102.375C123.107 102.375 124.108 102.79 124.847 103.528C125.585 104.267 126 105.268 126 106.313C126 107.357 125.585 108.358 124.847 109.097C124.108 109.835 123.107 110.25 122.062 110.25ZM137.812 110.25C136.768 110.25 135.767 109.835 135.028 109.097C134.29 108.358 133.875 107.357 133.875 106.313C133.875 105.268 134.29 104.267 135.028 103.528C135.767 102.79 136.768 102.375 137.812 102.375C138.857 102.375 139.858 102.79 140.597 103.528C141.335 104.267 141.75 105.268 141.75 106.313C141.75 107.357 141.335 108.358 140.597 109.097C139.858 109.835 138.857 110.25 137.812 110.25Z" fill="#F1F2B5"/>
<path d="M122.062 23.625C156.856 23.625 185.062 18.3364 185.062 11.8125C185.062 5.28864 156.856 0 122.062 0C87.2686 0 59.0625 5.28864 59.0625 11.8125C59.0625 18.3364 87.2686 23.625 122.062 23.625Z" fill="#F1F380"/>
<path d="M92.6887 228.375L87.4125 220.5H156.712L151.436 228.375H92.6887Z" fill="white"/>
<path d="M244.125 228.375V236.25C244.125 240.427 242.466 244.433 239.512 247.387C236.558 250.341 232.552 252 228.375 252H15.75C11.5728 252 7.56677 250.341 4.61307 247.387C1.65937 244.433 0 240.427 0 236.25V228.375C0 226.286 0.829685 224.283 2.30653 222.807C3.78338 221.33 5.78642 220.5 7.875 220.5H78.75C78.756 221.272 78.9888 222.025 79.4194 222.666C87.7669 235.147 87.8063 236.25 90.5625 236.25C158.484 236.25 155.216 236.998 156.831 234.478C165.375 221.957 165.375 222.075 165.375 220.5H236.25C238.339 220.5 240.342 221.33 241.818 222.807C243.295 224.283 244.125 226.286 244.125 228.375Z" fill="white"/>
<path d="M216.562 55.125H192.938V66.9375H212.625C213.669 66.9375 214.671 67.3523 215.409 68.0908C216.148 68.8292 216.562 69.8307 216.562 70.875V196.875C216.562 197.919 216.148 198.921 215.409 199.659C214.671 200.398 213.669 200.812 212.625 200.812H31.5C30.4557 200.812 29.4542 200.398 28.7158 199.659C27.9773 198.921 27.5625 197.919 27.5625 196.875V70.875C27.5625 69.8307 27.9773 68.8292 28.7158 68.0908C29.4542 67.3523 30.4557 66.9375 31.5 66.9375H51.1875V55.125H27.5625C24.4296 55.125 21.4251 56.3695 19.2098 58.5848C16.9945 60.8001 15.75 63.8046 15.75 66.9375V212.625H228.375V66.9375C228.375 63.8046 227.13 60.8001 224.915 58.5848C222.7 56.3695 219.695 55.125 216.562 55.125ZM59.0625 165.375C58.0182 165.375 57.0167 165.79 56.2783 166.528C55.5398 167.267 55.125 168.268 55.125 169.312C55.125 170.357 55.5398 171.358 56.2783 172.097C57.0167 172.835 58.0182 173.25 59.0625 173.25C60.1068 173.25 61.1083 172.835 61.8467 172.097C62.5852 171.358 63 170.357 63 169.312C63 168.268 62.5852 167.267 61.8467 166.528C61.1083 165.79 60.1068 165.375 59.0625 165.375ZM122.062 165.375C121.018 165.375 120.017 165.79 119.278 166.528C118.54 167.267 118.125 168.268 118.125 169.312C118.125 170.357 118.54 171.358 119.278 172.097C120.017 172.835 121.018 173.25 122.062 173.25C123.107 173.25 124.108 172.835 124.847 172.097C125.585 171.358 126 170.357 126 169.312C126 168.268 125.585 167.267 124.847 166.528C124.108 165.79 123.107 165.375 122.062 165.375ZM122.062 165.375C121.018 165.375 120.017 165.79 119.278 166.528C118.54 167.267 118.125 168.268 118.125 169.312C118.125 170.357 118.54 171.358 119.278 172.097C120.017 172.835 121.018 173.25 122.062 173.25C123.107 173.25 124.108 172.835 124.847 172.097C125.585 171.358 126 170.357 126 169.312C126 168.268 125.585 167.267 124.847 166.528C124.108 165.79 123.107 165.375 122.062 165.375ZM192.938 74.8125V106.312C192.938 121.314 166.674 126.827 145.688 128.796V141.75H185.062C186.107 141.75 187.108 142.165 187.847 142.903C188.585 143.642 189 144.643 189 145.688V158.209C191.627 159.138 193.841 160.965 195.251 163.369C196.661 165.772 197.176 168.597 196.705 171.343C196.234 174.09 194.807 176.581 192.676 178.377C190.546 180.173 187.849 181.158 185.062 181.158C182.276 181.158 179.579 180.173 177.449 178.377C175.318 176.581 173.891 174.09 173.42 171.343C172.949 168.597 173.464 165.772 174.874 163.369C176.284 160.965 178.498 159.138 181.125 158.209V149.625H141.75C140.706 149.625 139.704 149.21 138.966 148.472C138.227 147.733 137.812 146.732 137.812 145.688V129.426C133.166 129.701 129.071 129.859 126 129.898V158.209C128.627 159.138 130.841 160.965 132.251 163.369C133.661 165.772 134.176 168.597 133.705 171.343C133.234 174.09 131.807 176.581 129.676 178.377C127.546 180.173 124.849 181.158 122.062 181.158C119.276 181.158 116.579 180.173 114.449 178.377C112.318 176.581 110.891 174.09 110.42 171.343C109.949 168.597 110.464 165.772 111.874 163.369C113.284 160.965 115.498 159.138 118.125 158.209V129.938C115.054 129.938 110.959 129.741 106.312 129.465V145.688C106.312 146.732 105.898 147.733 105.159 148.472C104.421 149.21 103.419 149.625 102.375 149.625H63V158.209C65.6272 159.138 67.8414 160.965 69.2513 163.369C70.6612 165.772 71.1761 168.597 70.7049 171.343C70.2337 174.09 68.8067 176.581 66.6763 178.377C64.5458 180.173 61.849 181.158 59.0625 181.158C56.276 181.158 53.5792 180.173 51.4487 178.377C49.3183 176.581 47.8913 174.09 47.4201 171.343C46.9489 168.597 47.4638 165.772 48.8737 163.369C50.2836 160.965 52.4978 159.138 55.125 158.209V145.688C55.125 144.643 55.5398 143.642 56.2783 142.903C57.0167 142.165 58.0182 141.75 59.0625 141.75H98.4375V128.796C77.4506 126.827 51.1875 121.314 51.1875 106.312V74.8125H35.4375V192.938H208.688V74.8125H192.938ZM185.062 173.25C186.107 173.25 187.108 172.835 187.847 172.097C188.585 171.358 189 170.357 189 169.312C189 168.268 188.585 167.267 187.847 166.528C187.108 165.79 186.107 165.375 185.062 165.375C184.018 165.375 183.017 165.79 182.278 166.528C181.54 167.267 181.125 168.268 181.125 169.312C181.125 170.357 181.54 171.358 182.278 172.097C183.017 172.835 184.018 173.25 185.062 173.25ZM122.062 165.375C121.018 165.375 120.017 165.79 119.278 166.528C118.54 167.267 118.125 168.268 118.125 169.312C118.125 170.357 118.54 171.358 119.278 172.097C120.017 172.835 121.018 173.25 122.062 173.25C123.107 173.25 124.108 172.835 124.847 172.097C125.585 171.358 126 170.357 126 169.312C126 168.268 125.585 167.267 124.847 166.528C124.108 165.79 123.107 165.375 122.062 165.375ZM59.0625 165.375C58.0182 165.375 57.0167 165.79 56.2783 166.528C55.5398 167.267 55.125 168.268 55.125 169.312C55.125 170.357 55.5398 171.358 56.2783 172.097C57.0167 172.835 58.0182 173.25 59.0625 173.25C60.1068 173.25 61.1083 172.835 61.8467 172.097C62.5852 171.358 63 170.357 63 169.312C63 168.268 62.5852 167.267 61.8467 166.528C61.1083 165.79 60.1068 165.375 59.0625 165.375ZM59.0625 165.375C58.0182 165.375 57.0167 165.79 56.2783 166.528C55.5398 167.267 55.125 168.268 55.125 169.312C55.125 170.357 55.5398 171.358 56.2783 172.097C57.0167 172.835 58.0182 173.25 59.0625 173.25C60.1068 173.25 61.1083 172.835 61.8467 172.097C62.5852 171.358 63 170.357 63 169.312C63 168.268 62.5852 167.267 61.8467 166.528C61.1083 165.79 60.1068 165.375 59.0625 165.375ZM59.0625 165.375C58.0182 165.375 57.0167 165.79 56.2783 166.528C55.5398 167.267 55.125 168.268 55.125 169.312C55.125 170.357 55.5398 171.358 56.2783 172.097C57.0167 172.835 58.0182 173.25 59.0625 173.25C60.1068 173.25 61.1083 172.835 61.8467 172.097C62.5852 171.358 63 170.357 63 169.312C63 168.268 62.5852 167.267 61.8467 166.528C61.1083 165.79 60.1068 165.375 59.0625 165.375Z" fill="white"/>
</svg>
