<svg width="250" height="250" viewBox="0 0 250 250" fill="none" xmlns="http://www.w3.org/2000/svg">
<path d="M154.141 226.562L159.375 218.75H90.625L95.8594 226.562H154.141Z" fill="white"/>
<path d="M238.281 218.75H167.969C167.963 219.516 167.732 220.263 167.305 220.898C159.023 233.281 158.984 234.375 156.25 234.375C88.8672 234.375 92.1094 235.117 90.5078 232.617C82.2266 220.195 82.0312 220.312 82.0312 218.75H11.7188C9.64675 218.75 7.65961 219.573 6.19448 221.038C4.72935 222.503 3.90625 224.49 3.90625 226.562V234.375C3.90625 238.519 5.55245 242.493 8.48271 245.424C11.413 248.354 15.3872 250 19.5312 250H230.469C234.613 250 238.587 248.354 241.517 245.424C244.448 242.493 246.094 238.519 246.094 234.375V226.562C246.094 224.49 245.271 222.503 243.806 221.038C242.34 219.573 240.353 218.75 238.281 218.75Z" fill="white"/>
<path d="M210.938 74.2188H203.125V191.406H210.938V74.2188Z" fill="white"/>
<path d="M230.469 66.4062C230.469 63.2982 229.234 60.3175 227.036 58.1198C224.839 55.9221 221.858 54.6875 218.75 54.6875H203.125V66.4062H214.844C215.88 66.4062 216.873 66.8178 217.606 67.5504C218.338 68.2829 218.75 69.2765 218.75 70.3125V195.312C218.75 196.348 218.338 197.342 217.606 198.075C216.873 198.807 215.88 199.219 214.844 199.219H35.1562C34.1202 199.219 33.1267 198.807 32.3941 198.075C31.6616 197.342 31.25 196.348 31.25 195.312V70.3125C31.25 69.2765 31.6616 68.2829 32.3941 67.5504C33.1267 66.8178 34.1202 66.4062 35.1562 66.4062H46.875V54.6875H31.25C28.142 54.6875 25.1613 55.9221 22.9636 58.1198C20.7659 60.3175 19.5312 63.2982 19.5312 66.4062V210.938H230.469V66.4062Z" fill="white"/>
<path d="M46.875 74.2188H39.0625V191.406H46.875V74.2188Z" fill="white"/>
<path d="M171.875 167.969H78.125V175.781H171.875V167.969Z" fill="white"/>
<path d="M164.062 97.6562C162.517 97.6562 161.007 98.1144 159.722 98.9729C158.437 99.8313 157.436 101.051 156.845 102.479C156.253 103.907 156.099 105.477 156.4 106.993C156.702 108.508 157.446 109.9 158.538 110.993C159.631 112.086 161.023 112.83 162.538 113.131C164.054 113.433 165.625 113.278 167.052 112.687C168.48 112.095 169.7 111.094 170.558 109.809C171.417 108.524 171.875 107.014 171.875 105.469C171.875 103.397 171.052 101.41 169.587 99.9445C168.122 98.4794 166.135 97.6562 164.062 97.6562ZM164.062 97.6562C162.517 97.6562 161.007 98.1144 159.722 98.9729C158.437 99.8313 157.436 101.051 156.845 102.479C156.253 103.907 156.099 105.477 156.4 106.993C156.702 108.508 157.446 109.9 158.538 110.993C159.631 112.086 161.023 112.83 162.538 113.131C164.054 113.433 165.625 113.278 167.052 112.687C168.48 112.095 169.7 111.094 170.558 109.809C171.417 108.524 171.875 107.014 171.875 105.469C171.875 103.397 171.052 101.41 169.587 99.9445C168.122 98.4794 166.135 97.6562 164.062 97.6562ZM85.9375 97.6562C84.3923 97.6562 82.8819 98.1144 81.5971 98.9729C80.3123 99.8313 79.311 101.051 78.7197 102.479C78.1284 103.907 77.9737 105.477 78.2751 106.993C78.5766 108.508 79.3206 109.9 80.4132 110.993C81.5058 112.086 82.8979 112.83 84.4134 113.131C85.9288 113.433 87.4997 113.278 88.9272 112.687C90.3548 112.095 91.5749 111.094 92.4334 109.809C93.2918 108.524 93.75 107.014 93.75 105.469C93.75 103.397 92.9269 101.41 91.4618 99.9445C89.9966 98.4794 88.0095 97.6562 85.9375 97.6562ZM125 97.6562C123.455 97.6562 121.944 98.1144 120.66 98.9729C119.375 99.8313 118.374 101.051 117.782 102.479C117.191 103.907 117.036 105.477 117.338 106.993C117.639 108.508 118.383 109.9 119.476 110.993C120.568 112.086 121.96 112.83 123.476 113.131C124.991 113.433 126.562 113.278 127.99 112.687C129.417 112.095 130.637 111.094 131.496 109.809C132.354 108.524 132.812 107.014 132.812 105.469C132.812 103.397 131.989 101.41 130.524 99.9445C129.059 98.4794 127.072 97.6562 125 97.6562ZM164.062 97.6562C162.517 97.6562 161.007 98.1144 159.722 98.9729C158.437 99.8313 157.436 101.051 156.845 102.479C156.253 103.907 156.099 105.477 156.4 106.993C156.702 108.508 157.446 109.9 158.538 110.993C159.631 112.086 161.023 112.83 162.538 113.131C164.054 113.433 165.625 113.278 167.052 112.687C168.48 112.095 169.7 111.094 170.558 109.809C171.417 108.524 171.875 107.014 171.875 105.469C171.875 103.397 171.052 101.41 169.587 99.9445C168.122 98.4794 166.135 97.6562 164.062 97.6562ZM164.062 97.6562C162.517 97.6562 161.007 98.1144 159.722 98.9729C158.437 99.8313 157.436 101.051 156.845 102.479C156.253 103.907 156.099 105.477 156.4 106.993C156.702 108.508 157.446 109.9 158.538 110.993C159.631 112.086 161.023 112.83 162.538 113.131C164.054 113.433 165.625 113.278 167.052 112.687C168.48 112.095 169.7 111.094 170.558 109.809C171.417 108.524 171.875 107.014 171.875 105.469C171.875 103.397 171.052 101.41 169.587 99.9445C168.122 98.4794 166.135 97.6562 164.062 97.6562ZM85.9375 97.6562C84.3923 97.6562 82.8819 98.1144 81.5971 98.9729C80.3123 99.8313 79.311 101.051 78.7197 102.479C78.1284 103.907 77.9737 105.477 78.2751 106.993C78.5766 108.508 79.3206 109.9 80.4132 110.993C81.5058 112.086 82.8979 112.83 84.4134 113.131C85.9288 113.433 87.4997 113.278 88.9272 112.687C90.3548 112.095 91.5749 111.094 92.4334 109.809C93.2918 108.524 93.75 107.014 93.75 105.469C93.75 103.397 92.9269 101.41 91.4618 99.9445C89.9966 98.4794 88.0095 97.6562 85.9375 97.6562ZM125 97.6562C123.455 97.6562 121.944 98.1144 120.66 98.9729C119.375 99.8313 118.374 101.051 117.782 102.479C117.191 103.907 117.036 105.477 117.338 106.993C117.639 108.508 118.383 109.9 119.476 110.993C120.568 112.086 121.96 112.83 123.476 113.131C124.991 113.433 126.562 113.278 127.99 112.687C129.417 112.095 130.637 111.094 131.496 109.809C132.354 108.524 132.812 107.014 132.812 105.469C132.812 103.397 131.989 101.41 130.524 99.9445C129.059 98.4794 127.072 97.6562 125 97.6562ZM54.6875 31.25V191.406H195.312V31.25H54.6875ZM74.2188 128.906H97.6562C98.6923 128.906 99.6858 129.318 100.418 130.05C101.151 130.783 101.562 131.776 101.562 132.812C101.562 133.849 101.151 134.842 100.418 135.575C99.6858 136.307 98.6923 136.719 97.6562 136.719H74.2188C73.1827 136.719 72.1892 136.307 71.4566 135.575C70.724 134.842 70.3125 133.849 70.3125 132.812C70.3125 131.776 70.724 130.783 71.4566 130.05C72.1892 129.318 73.1827 128.906 74.2188 128.906ZM70.3125 105.469C70.3125 102.378 71.2289 99.3575 72.9458 96.788C74.6627 94.2184 77.103 92.2158 79.9581 91.0331C82.8132 89.8505 85.9548 89.5411 88.9858 90.144C92.0167 90.7469 94.8008 92.235 96.986 94.4202C99.1712 96.6054 100.659 99.3895 101.262 102.42C101.865 105.451 101.556 108.593 100.373 111.448C99.1905 114.303 97.1878 116.744 94.6183 118.46C92.0488 120.177 89.0278 121.094 85.9375 121.094C81.7935 121.094 77.8192 119.448 74.889 116.517C71.9587 113.587 70.3125 109.613 70.3125 105.469ZM74.2188 144.531H97.6562C98.6923 144.531 99.6858 144.943 100.418 145.675C101.151 146.408 101.562 147.401 101.562 148.438C101.562 149.474 101.151 150.467 100.418 151.2C99.6858 151.932 98.6923 152.344 97.6562 152.344H74.2188C73.1827 152.344 72.1892 151.932 71.4566 151.2C70.724 150.467 70.3125 149.474 70.3125 148.438C70.3125 147.401 70.724 146.408 71.4566 145.675C72.1892 144.943 73.1827 144.531 74.2188 144.531ZM179.688 179.688C179.688 180.723 179.276 181.717 178.543 182.45C177.811 183.182 176.817 183.594 175.781 183.594H74.2188C73.1827 183.594 72.1892 183.182 71.4566 182.45C70.724 181.717 70.3125 180.723 70.3125 179.688V164.062C70.3125 163.027 70.724 162.033 71.4566 161.3C72.1892 160.568 73.1827 160.156 74.2188 160.156H175.781C176.817 160.156 177.811 160.568 178.543 161.3C179.276 162.033 179.688 163.027 179.688 164.062V179.688ZM113.281 128.906H136.719C137.755 128.906 138.748 129.318 139.481 130.05C140.213 130.783 140.625 131.776 140.625 132.812C140.625 133.849 140.213 134.842 139.481 135.575C138.748 136.307 137.755 136.719 136.719 136.719H113.281C112.245 136.719 111.252 136.307 110.519 135.575C109.787 134.842 109.375 133.849 109.375 132.812C109.375 131.776 109.787 130.783 110.519 130.05C111.252 129.318 112.245 128.906 113.281 128.906ZM109.375 105.469C109.375 102.378 110.291 99.3575 112.008 96.788C113.725 94.2184 116.165 92.2158 119.021 91.0331C121.876 89.8505 125.017 89.5411 128.048 90.144C131.079 90.7469 133.863 92.235 136.049 94.4202C138.234 96.6054 139.722 99.3895 140.325 102.42C140.928 105.451 140.618 108.593 139.436 111.448C138.253 114.303 136.25 116.744 133.681 118.46C131.111 120.177 128.09 121.094 125 121.094C120.856 121.094 116.882 119.448 113.951 116.517C111.021 113.587 109.375 109.613 109.375 105.469ZM113.281 144.531H136.719C137.755 144.531 138.748 144.943 139.481 145.675C140.213 146.408 140.625 147.401 140.625 148.438C140.625 149.474 140.213 150.467 139.481 151.2C138.748 151.932 137.755 152.344 136.719 152.344H113.281C112.245 152.344 111.252 151.932 110.519 151.2C109.787 150.467 109.375 149.474 109.375 148.438C109.375 147.401 109.787 146.408 110.519 145.675C111.252 144.943 112.245 144.531 113.281 144.531ZM175.781 152.344H152.344C151.308 152.344 150.314 151.932 149.582 151.2C148.849 150.467 148.438 149.474 148.438 148.438C148.438 147.401 148.849 146.408 149.582 145.675C150.314 144.943 151.308 144.531 152.344 144.531H175.781C176.817 144.531 177.811 144.943 178.543 145.675C179.276 146.408 179.688 147.401 179.688 148.438C179.688 149.474 179.276 150.467 178.543 151.2C177.811 151.932 176.817 152.344 175.781 152.344ZM175.781 136.719H152.344C151.308 136.719 150.314 136.307 149.582 135.575C148.849 134.842 148.438 133.849 148.438 132.812C148.438 131.776 148.849 130.783 149.582 130.05C150.314 129.318 151.308 128.906 152.344 128.906H175.781C176.817 128.906 177.811 129.318 178.543 130.05C179.276 130.783 179.688 131.776 179.688 132.812C179.688 133.849 179.276 134.842 178.543 135.575C177.811 136.307 176.817 136.719 175.781 136.719ZM164.062 121.094C160.972 121.094 157.951 120.177 155.382 118.46C152.812 116.744 150.81 114.303 149.627 111.448C148.444 108.593 148.135 105.451 148.738 102.42C149.341 99.3895 150.829 96.6054 153.014 94.4202C155.199 92.235 157.983 90.7469 161.014 90.144C164.045 89.5411 167.187 89.8505 170.042 91.0331C172.897 92.2158 175.337 94.2184 177.054 96.788C178.771 99.3575 179.688 102.378 179.688 105.469C179.688 109.613 178.041 113.587 175.111 116.517C172.181 119.448 168.207 121.094 164.062 121.094ZM179.688 78.125C179.688 79.161 179.276 80.1546 178.543 80.8871C177.811 81.6197 176.817 82.0312 175.781 82.0312H74.2188C73.1827 82.0312 72.1892 81.6197 71.4566 80.8871C70.724 80.1546 70.3125 79.161 70.3125 78.125V42.9688C70.3125 41.9327 70.724 40.9392 71.4566 40.2066C72.1892 39.4741 73.1827 39.0625 74.2188 39.0625H175.781C176.817 39.0625 177.811 39.4741 178.543 40.2066C179.276 40.9392 179.688 41.9327 179.688 42.9688V78.125ZM78.125 74.2188H171.875V46.875H78.125V74.2188ZM164.062 97.6562C162.517 97.6562 161.007 98.1144 159.722 98.9729C158.437 99.8313 157.436 101.051 156.845 102.479C156.253 103.907 156.099 105.477 156.4 106.993C156.702 108.508 157.446 109.9 158.538 110.993C159.631 112.086 161.023 112.83 162.538 113.131C164.054 113.433 165.625 113.278 167.052 112.687C168.48 112.095 169.7 111.094 170.558 109.809C171.417 108.524 171.875 107.014 171.875 105.469C171.875 103.397 171.052 101.41 169.587 99.9445C168.122 98.4794 166.135 97.6562 164.062 97.6562ZM125 113.281C126.545 113.281 128.056 112.823 129.34 111.965C130.625 111.106 131.627 109.886 132.218 108.458C132.809 107.031 132.964 105.46 132.662 103.945C132.361 102.429 131.617 101.037 130.524 99.9445C129.432 98.8519 128.04 98.1078 126.524 97.8064C125.009 97.5049 123.438 97.6596 122.01 98.2509C120.583 98.8422 119.363 99.8436 118.504 101.128C117.646 102.413 117.188 103.924 117.188 105.469C117.188 107.541 118.011 109.528 119.476 110.993C120.941 112.458 122.928 113.281 125 113.281ZM85.9375 113.281C87.4827 113.281 88.9931 112.823 90.2779 111.965C91.5627 111.106 92.564 109.886 93.1553 108.458C93.7466 107.031 93.9013 105.46 93.5999 103.945C93.2984 102.429 92.5544 101.037 91.4618 99.9445C90.3692 98.8519 88.9771 98.1078 87.4616 97.8064C85.9462 97.5049 84.3753 97.6596 82.9478 98.2509C81.5202 98.8422 80.3001 99.8436 79.4416 101.128C78.5832 102.413 78.125 103.924 78.125 105.469C78.125 107.541 78.9481 109.528 80.4132 110.993C81.8784 112.458 83.8655 113.281 85.9375 113.281ZM125 97.6562C123.455 97.6562 121.944 98.1144 120.66 98.9729C119.375 99.8313 118.374 101.051 117.782 102.479C117.191 103.907 117.036 105.477 117.338 106.993C117.639 108.508 118.383 109.9 119.476 110.993C120.568 112.086 121.96 112.83 123.476 113.131C124.991 113.433 126.562 113.278 127.99 112.687C129.417 112.095 130.637 111.094 131.496 109.809C132.354 108.524 132.812 107.014 132.812 105.469C132.812 103.397 131.989 101.41 130.524 99.9445C129.059 98.4794 127.072 97.6562 125 97.6562ZM164.062 97.6562C162.517 97.6562 161.007 98.1144 159.722 98.9729C158.437 99.8313 157.436 101.051 156.845 102.479C156.253 103.907 156.099 105.477 156.4 106.993C156.702 108.508 157.446 109.9 158.538 110.993C159.631 112.086 161.023 112.83 162.538 113.131C164.054 113.433 165.625 113.278 167.052 112.687C168.48 112.095 169.7 111.094 170.558 109.809C171.417 108.524 171.875 107.014 171.875 105.469C171.875 103.397 171.052 101.41 169.587 99.9445C168.122 98.4794 166.135 97.6562 164.062 97.6562ZM164.062 97.6562C162.517 97.6562 161.007 98.1144 159.722 98.9729C158.437 99.8313 157.436 101.051 156.845 102.479C156.253 103.907 156.099 105.477 156.4 106.993C156.702 108.508 157.446 109.9 158.538 110.993C159.631 112.086 161.023 112.83 162.538 113.131C164.054 113.433 165.625 113.278 167.052 112.687C168.48 112.095 169.7 111.094 170.558 109.809C171.417 108.524 171.875 107.014 171.875 105.469C171.875 103.397 171.052 101.41 169.587 99.9445C168.122 98.4794 166.135 97.6562 164.062 97.6562ZM125 97.6562C123.455 97.6562 121.944 98.1144 120.66 98.9729C119.375 99.8313 118.374 101.051 117.782 102.479C117.191 103.907 117.036 105.477 117.338 106.993C117.639 108.508 118.383 109.9 119.476 110.993C120.568 112.086 121.96 112.83 123.476 113.131C124.991 113.433 126.562 113.278 127.99 112.687C129.417 112.095 130.637 111.094 131.496 109.809C132.354 108.524 132.812 107.014 132.812 105.469C132.812 103.397 131.989 101.41 130.524 99.9445C129.059 98.4794 127.072 97.6562 125 97.6562Z" fill="#F1F2B5"/>
<path d="M54.6875 0V23.4375H195.312V0H54.6875ZM70.3125 15.625C69.2765 15.625 68.2829 15.2135 67.5504 14.4809C66.8178 13.7483 66.4062 12.7548 66.4062 11.7188C66.4062 10.6827 66.8178 9.68918 67.5504 8.95661C68.2829 8.22405 69.2765 7.8125 70.3125 7.8125C71.3485 7.8125 72.3421 8.22405 73.0746 8.95661C73.8072 9.68918 74.2188 10.6827 74.2188 11.7188C74.2188 12.7548 73.8072 13.7483 73.0746 14.4809C72.3421 15.2135 71.3485 15.625 70.3125 15.625ZM85.9375 15.625C84.9015 15.625 83.9079 15.2135 83.1754 14.4809C82.4428 13.7483 82.0312 12.7548 82.0312 11.7188C82.0312 10.6827 82.4428 9.68918 83.1754 8.95661C83.9079 8.22405 84.9015 7.8125 85.9375 7.8125C86.9735 7.8125 87.9671 8.22405 88.6996 8.95661C89.4322 9.68918 89.8438 10.6827 89.8438 11.7188C89.8438 12.7548 89.4322 13.7483 88.6996 14.4809C87.9671 15.2135 86.9735 15.625 85.9375 15.625ZM101.562 15.625C100.526 15.625 99.5329 15.2135 98.8004 14.4809C98.0678 13.7483 97.6562 12.7548 97.6562 11.7188C97.6562 10.6827 98.0678 9.68918 98.8004 8.95661C99.5329 8.22405 100.526 7.8125 101.562 7.8125C102.599 7.8125 103.592 8.22405 104.325 8.95661C105.057 9.68918 105.469 10.6827 105.469 11.7188C105.469 12.7548 105.057 13.7483 104.325 14.4809C103.592 15.2135 102.599 15.625 101.562 15.625Z" fill="#F1F380"/>
</svg>
